<?xml version="1.0" encoding="utf-8"?>
<!-- Generator: Adobe Illustrator 19.2.0, SVG Export Plug-In . SVG Version: 6.00 Build 0)  -->
<svg version="1.1" id="Слой_1" xmlns="http://www.w3.org/2000/svg" xmlns:xlink="http://www.w3.org/1999/xlink" x="0px" y="0px"
	 viewBox="0 0 146.8 29" style="enable-background:new 0 0 146.8 29;" xml:space="preserve">
<style type="text/css">
	.st0{fill:#FFFFFF;}
</style>
<g>
	<path class="st0" d="M34.6,1.5C34,1.7,2.3,12.8,1.7,13.1c-0.5,0.2-0.6,0.6,0,0.9c0.7,0.3,7.1,2.8,7.1,2.8h0l4.2,1.7
		c0,0,20.2-14.9,20.5-15.1c0.3-0.2,0.6,0.2,0.4,0.4C33.6,4,19.1,19.7,19.1,19.7c0,0,0,0,0,0l-0.8,0.9l1.1,0.6v0c0,0,8.7,4.7,9.3,5
		c0.5,0.3,1.2,0,1.4-0.6c0.2-0.8,5.3-22.9,5.4-23.4C35.7,1.6,35.3,1.2,34.6,1.5z M12.9,28.6c0,0.5,0.3,0.6,0.6,0.3
		c0.5-0.4,5.3-4.8,5.3-4.8L12.9,21V28.6z"/>
	<g>
		<path class="st0" d="M61.3,6.5c0.6,0,0.9,0.3,0.9,0.7v2.8c0,0.5-0.3,0.8-0.9,0.8h-7.2c-0.6,0-0.9,0.3-0.9,0.8v0.8
			c0,0.5,0.3,0.7,0.9,0.7h4.6c0.6,0,0.9,0.3,0.9,0.8v2.8c0,0.5-0.3,0.7-0.9,0.7h-4.6c-0.6,0-0.9,0.3-0.9,0.8V19
			c0,0.5,0.3,0.8,0.9,0.8h7.2c0.6,0,0.9,0.3,0.9,0.7v2.8c0,0.5-0.3,0.8-0.9,0.8H48.9c-0.6,0-0.9-0.3-0.9-0.8v-16
			c0-0.5,0.3-0.7,0.9-0.7H61.3z"/>
		<path class="st0" d="M74.2,12.7c-0.6,0.1-0.9-0.1-1-0.6c-0.2-1-1.2-1.7-2.6-1.7c-1.2,0-1.9,0.6-1.7,1.1c0.4,1.9,9.8,1.9,9.8,7.6
			c0,0.8-1,5.2-8,5.2c-6.2,0-7.5-3.4-7.7-5.4c0-0.4,0.2-0.7,0.8-0.8l3.3-0.6c0.6-0.1,0.9,0.1,1,0.6c0.1,1.2,1.2,1.9,2.6,1.9
			c1.4,0,2.5-0.7,2.3-1.4c-0.6-2.1-9.5-1.6-9.5-7.4c0-0.8,0.5-5.2,7.1-5.2c6.1,0,7.5,3.3,7.7,5.1c0,0.5-0.2,0.7-0.8,0.8L74.2,12.7z"
			/>
		<path class="st0" d="M80.5,12.1c0-1.6,0.4-6.1,7.4-6.1c6.3,0,7.3,3.6,7.4,5.5c0,0.3-0.2,0.6-0.7,0.7l-3.3,0.6
			c-0.6,0.1-1.1-0.3-1.2-0.8c-0.1-1.1-0.7-1.7-2.3-1.7c-2.2,0-2.3,1.2-2.3,3.1v3.6c0,1.9,0.1,3.1,2.3,3.1c1.6,0,2.1-0.6,2.2-1.8
			c0.1-0.5,0.6-0.9,1.2-0.7l3.3,0.6c0.4,0.1,0.7,0.4,0.7,0.7c-0.1,1.9-1.1,5.5-7.4,5.5c-7,0-7.4-4.4-7.4-6.1V12.1z"/>
		<path class="st0" d="M111.7,23.2c0,0.5-0.3,0.8-0.9,0.8h-3.3c-0.6,0-0.9-0.3-0.9-0.8v-2.2c0-0.5-0.3-0.8-0.9-0.8h-2.5
			c-0.6,0-0.9,0.3-0.9,0.8v2.2c0,0.5-0.3,0.8-0.9,0.8h-3.3c-0.6,0-0.9-0.3-0.9-0.8V12.6c0-3.1,0.6-6.5,7.2-6.5
			c6.7,0,7.2,3.3,7.2,6.5V23.2z M106.6,12.6c0-1.2-0.2-1.8-2.2-1.8c-2,0-2.2,0.6-2.2,1.8v2.7c0,0.5,0.3,0.7,0.9,0.7h2.5
			c0.6,0,0.9-0.3,0.9-0.8V12.6z"/>
		<path class="st0" d="M121.9,6.5c5.3,0,7.4,1.9,7.4,6c0,4.1-2.1,6-7.4,6h-1.4c-0.6,0-0.9,0.3-0.9,0.7v4c0,0.5-0.3,0.8-0.9,0.8h-3.3
			c-0.6,0-0.9-0.3-0.9-0.8v-16c0-0.5,0.3-0.8,0.9-0.8H121.9z M122.1,14.2c1.4,0,2.1-0.1,2.1-1.7c0-1.5-0.7-1.7-2.1-1.7h-1.6
			c-0.6,0-0.9,0.3-0.9,0.8v1.9c0,0.5,0.3,0.7,0.9,0.7H122.1z"/>
		<path class="st0" d="M144.4,6.5c0.6,0,0.9,0.3,0.9,0.7v2.8c0,0.5-0.3,0.8-0.9,0.8h-7.2c-0.6,0-0.9,0.3-0.9,0.8v0.8
			c0,0.5,0.3,0.7,0.9,0.7h4.6c0.6,0,0.9,0.3,0.9,0.8v2.8c0,0.5-0.3,0.7-0.9,0.7h-4.6c-0.6,0-0.9,0.3-0.9,0.8V19
			c0,0.5,0.3,0.8,0.9,0.8h7.2c0.6,0,0.9,0.3,0.9,0.7v2.8c0,0.5-0.3,0.8-0.9,0.8H132c-0.6,0-0.9-0.3-0.9-0.8v-16
			c0-0.5,0.3-0.7,0.9-0.7H144.4z"/>
	</g>
</g>
</svg>
